<?xml version="1.0" encoding="UTF-8"?>
<svg width="43px" height="31px" viewBox="0 0 43 31" version="1.1" xmlns="http://www.w3.org/2000/svg" xmlns:xlink="http://www.w3.org/1999/xlink">
    <title>bed</title>
    <g id="Page-1" stroke="none" stroke-width="1" fill="none" fill-rule="evenodd">
        <g id="HotelManagement" transform="translate(-1130.000000, -175.000000)" fill="#596C76" fill-rule="nonzero">
            <g id="right" transform="translate(1068.000000, 0.000000)">
                <g id="Group-6" transform="translate(40.000000, 140.000000)">
                    <g id="Group-4" transform="translate(0.000000, 7.000000)">
                        <g id="bed" transform="translate(22.000000, 28.000000)">
                            <path d="M40.7808749,13.425636 L40.7808749,2.67231319 C40.7808749,1.19881568 39.5993174,0 38.1470324,0 L4.85296758,0 C3.40068258,0 2.21912509,1.19881568 2.21912509,2.67231319 L2.21912509,13.4257482 C0.964466757,13.6194168 0,14.7211738 0,16.0474562 L0,22.7033293 C0,23.1680892 0.371365597,23.544879 0.829434776,23.544879 L1.7180359,23.544879 L1.7180359,27.6965245 C1.7180359,28.1612844 2.0894015,28.5380742 2.54747067,28.5380742 L4.04476633,28.5380742 L4.04476633,30.1584502 C4.04476633,30.6232101 4.41613193,31 4.87420111,31 C5.33227029,31 5.70363588,30.6232101 5.70363588,30.1584502 L5.70363588,28.5380742 L37.2964747,28.5380742 L37.2964747,30.1584502 C37.2964747,30.6232101 37.6677297,31 38.1259095,31 C38.5840893,31 38.9553443,30.6232101 38.9553443,30.1584502 L38.9553443,28.5380742 L40.4526399,28.5380742 C40.9108197,28.5380742 41.2820747,28.1612844 41.2820747,27.6965245 L41.2820747,23.544879 L42.1705652,23.544879 C42.628745,23.544879 43,23.1680892 43,22.7033293 L43,16.0474562 C43,14.7211738 42.0355332,13.6193046 40.7808749,13.425636 Z M3.87788405,2.67231319 C3.87788405,2.12687675 4.31527266,1.68309951 4.85285698,1.68309951 L38.1469218,1.68309951 C38.6845062,1.68309951 39.1218948,2.12687675 39.1218948,2.67231319 L39.1218948,13.3954524 L36.2094728,13.3954524 C36.7889712,12.7624948 37.3784229,12.096885 37.9888869,11.3847095 C38.2603885,11.0679502 38.2602779,10.5966823 37.9887763,10.2800352 C35.5891662,7.48182614 33.580054,5.44336823 30.8229022,3.00949413 C30.5108135,2.73391464 30.0462194,2.73391464 29.7340202,3.00949413 C26.9767578,5.44348043 24.9677562,7.48193835 22.5682567,10.2800352 C22.296755,10.5966823 22.2966445,11.0679502 22.5681461,11.3847095 C23.1787207,12.0969972 23.7680617,12.762607 24.3475602,13.3954524 L18.6517763,13.3954524 C19.2312747,12.7624948 19.8208369,12.096885 20.4313009,11.3847095 C20.7028026,11.0679502 20.7028026,10.5966823 20.4311903,10.2800352 C18.031912,7.48227497 16.0227998,5.44381705 13.2653163,3.00949413 C12.9532276,2.73391464 12.4886335,2.73391464 12.1764343,3.00949413 C9.41895072,5.44381705 7.40983851,7.48227497 5.01056018,10.2800352 C4.73894794,10.5966823 4.73894794,11.0679502 5.01044959,11.3847095 C5.62102418,12.096885 6.21047583,12.7624948 6.78997426,13.3954524 L3.87788405,13.3954524 L3.87788405,2.67231319 Z M26.6362472,13.3954524 C25.8730566,12.6005806 25.1021246,11.7560012 24.2972411,10.8324284 C26.2800326,8.55609246 28.035559,6.77492435 30.2785718,4.76362044 C32.5215846,6.77481214 34.2771109,8.55609246 36.260013,10.8324284 C35.4552401,11.7560012 34.6841975,12.6005806 33.9210069,13.3954524 L26.6362472,13.3954524 Z M9.07877187,13.3954524 C8.31558129,12.6004684 7.54453872,11.7560012 6.73965521,10.8324284 C8.72211492,8.55654128 10.477973,6.77503656 12.7210964,4.76362044 C14.9642199,6.77503656 16.720078,8.55654128 18.7025377,10.8324284 C17.8977648,11.7560012 17.1267222,12.6004684 16.363421,13.3954524 L9.07877187,13.3954524 Z M39.6232051,26.8549747 L3.37690545,26.8549747 L3.37690545,23.544879 L39.6232051,23.544879 L39.6232051,26.8549747 Z M41.3411304,21.8617795 L1.65886955,21.8617795 L1.65886955,16.0474562 C1.65886955,15.5132404 2.08730026,15.0785519 2.61393605,15.0785519 L40.386064,15.0785519 C40.9126997,15.0785519 41.3411304,15.5132404 41.3411304,16.0474562 L41.3411304,21.8617795 Z" id="Shape"></path>
                        </g>
                    </g>
                </g>
            </g>
        </g>
    </g>
</svg>