<?xml version="1.0" encoding="UTF-8"?>
<svg width="40px" height="30px" viewBox="0 0 40 30" version="1.1" xmlns="http://www.w3.org/2000/svg" xmlns:xlink="http://www.w3.org/1999/xlink">
    <title>image-regular</title>
    <g id="Page-1" stroke="none" stroke-width="1" fill="none" fill-rule="evenodd">
        <g id="HotelManagement-Chat" transform="translate(-750.000000, -939.000000)" fill="#55B7A1" fill-rule="nonzero">
            <g id="Group-5" transform="translate(663.000000, 126.000000)">
                <g id="Group-7" transform="translate(1.000000, 801.000000)">
                    <g id="image-regular" transform="translate(86.000000, 12.000000)">
                        <path d="M36.25,0 L3.75,0 C1.67890625,0 0,1.67890625 0,3.75 L0,26.25 C0,28.3210937 1.67890625,30 3.75,30 L36.25,30 C38.3210938,30 40,28.3210937 40,26.25 L40,3.75 C40,1.67890625 38.3210938,0 36.25,0 Z M35.78125,26.25 L4.21875,26.25 C3.95986652,26.25 3.75,26.0401335 3.75,25.78125 L3.75,4.21875 C3.75,3.95986652 3.95986652,3.75 4.21875,3.75 L35.78125,3.75 C36.0401335,3.75 36.25,3.95986652 36.25,4.21875 L36.25,25.78125 C36.25,26.0401335 36.0401335,26.25 35.78125,26.25 L35.78125,26.25 Z M10,6.875 C8.27414062,6.875 6.875,8.27414062 6.875,10 C6.875,11.7258594 8.27414062,13.125 10,13.125 C11.7258594,13.125 13.125,11.7258594 13.125,10 C13.125,8.27414062 11.7258594,6.875 10,6.875 Z M7.5,22.5 L32.5,22.5 L32.5,16.25 L25.6628906,9.41289063 C25.2967969,9.04679688 24.7032031,9.04679688 24.3370313,9.41289063 L15,18.75 L11.9128906,15.6628906 C11.5467969,15.2967969 10.9532031,15.2967969 10.5870313,15.6628906 L7.5,18.75 L7.5,22.5 Z" id="Shape"></path>
                    </g>
                </g>
            </g>
        </g>
    </g>
</svg>