<?xml version="1.0" encoding="UTF-8"?>
<svg width="27px" height="30px" viewBox="0 0 27 30" version="1.1" xmlns="http://www.w3.org/2000/svg" xmlns:xlink="http://www.w3.org/1999/xlink">
    <title>paperclip-solid</title>
    <g id="Page-1" stroke="none" stroke-width="1" fill="none" fill-rule="evenodd">
        <g id="HotelManagement-Chat" transform="translate(-707.000000, -939.000000)" fill="#55B7A1" fill-rule="nonzero">
            <g id="Group-5" transform="translate(663.000000, 126.000000)">
                <g id="Group-7" transform="translate(1.000000, 801.000000)">
                    <g id="paperclip-solid" transform="translate(43.000000, 12.000000)">
                        <path d="M2.52900585,27.3182456 C-0.887953216,23.7925731 -0.824269006,18.107076 2.61005848,14.5942105 L14.8767251,2.04678363 C17.4683041,-0.604210526 21.6808772,-0.604444444 24.2726901,2.04678363 C26.8393567,4.67216374 26.8424561,8.90812865 24.2726901,11.5366082 L13.5797661,22.4636257 C11.8338596,24.2494152 8.98134503,24.2245029 7.26502924,22.4052632 C5.61152047,20.6526316 5.6645614,17.8746784 7.34994152,16.1507018 L15.7559649,7.56385965 C16.1174854,7.19461988 16.709883,7.18830409 17.0791228,7.54976608 L18.4160234,8.85847953 C18.7853216,9.22 18.7915789,9.81239766 18.430117,10.1816374 L10.0249708,18.7676608 C9.73654971,19.0626901 9.71877193,19.552924 9.98707602,19.8373684 C10.2427485,20.1083626 10.6446784,20.1128655 10.9045029,19.8470175 L21.5974269,8.92005848 C22.744386,7.74684211 22.744386,5.83672515 21.5967836,4.6628655 C20.4746199,3.51508772 18.6753216,3.51450292 17.5526901,4.6628655 L5.28596491,17.2102339 C3.25304094,19.2897661 3.22169591,22.655848 5.21631579,24.7139181 C7.20520468,26.7661404 10.420117,26.7687135 12.4126901,24.7306433 L22.4746784,14.4383041 C22.8359064,14.0687719 23.4283041,14.0621053 23.7978363,14.4233333 L25.1356725,15.7311696 C25.5052047,16.0923977 25.5119298,16.6847953 25.1506433,17.0543275 L15.088655,27.3466082 C11.6046784,30.9102339 5.96918129,30.8680117 2.52900585,27.3182456 Z" id="Path"></path>
                    </g>
                </g>
            </g>
        </g>
    </g>
</svg>