<?xml version="1.0" encoding="UTF-8"?>
<svg width="44px" height="41px" viewBox="0 0 44 41" version="1.1" xmlns="http://www.w3.org/2000/svg" xmlns:xlink="http://www.w3.org/1999/xlink">
    <title>reception-bell</title>
    <g id="Page-1" stroke="none" stroke-width="1" fill="none" fill-rule="evenodd">
        <g id="HotelManagement" transform="translate(-1128.000000, -337.000000)" fill="#596C76" fill-rule="nonzero">
            <g id="right" transform="translate(1068.000000, 0.000000)">
                <g id="Group-6" transform="translate(40.000000, 291.000000)">
                    <g id="Group-4" transform="translate(0.000000, 27.000000)">
                        <g id="reception-bell" transform="translate(20.000000, 19.000000)">
                            <path d="M41.7892582,31.0216868 C41.4996102,30.2444539 40.9191029,29.6235096 40.1812024,29.3015657 C39.4579408,28.9830949 38.641596,28.9849893 37.9197478,29.3066175 L32.682865,31.6245291 C32.697302,31.5218102 32.7064892,31.4183545 32.7103256,31.3146884 C32.7103256,29.6871827 31.4447187,28.3678338 29.8835073,28.3678338 L23.6184704,28.3678338 C22.9846573,28.3668866 22.3596276,28.2129134 21.7923458,27.918228 C19.1713805,26.5561497 16.2832808,25.8455368 13.3546971,25.8419584 L11.307273,25.8419584 C11.307273,25.3769869 10.9456422,25 10.4996107,25 L4.0383118,25 C3.59228026,25 3.23064944,25.3769869 3.23064944,25.8419584 L0,25.8419584 L0,27.5258753 L3.23064944,27.5258753 L3.23064944,35.9454598 L0,35.9454598 L0,37.6293767 L3.23064944,37.6293767 C3.23064944,38.0943483 3.59228026,38.4713352 4.0383118,38.4713352 L10.4996107,38.4713352 C10.9456422,38.4713352 11.307273,38.0943483 11.307273,37.6293767 L11.307273,37.3085906 L17.3372802,39.9186618 C20.624466,41.3182072 24.2994307,41.3607261 27.6155914,40.0373779 L40.0923595,35.0774007 C40.8314716,34.7846096 41.4263149,34.19366 41.7424137,33.4381076 C42.0688103,32.6719254 42.0856702,31.8010246 41.7892582,31.0216868 Z M9.69194832,36.7874183 L4.84597416,36.7874183 L4.84597416,26.6839169 L9.69194832,26.6839169 L9.69194832,36.7874183 Z M40.261161,32.7594891 C40.1185076,33.1032186 39.8488493,33.3725401 39.5132656,33.5063062 L27.0364975,38.4654415 C24.1047841,39.6361847 20.8555584,39.59977 17.9486806,38.3635645 L11.307273,35.4849086 L11.307273,27.5258753 L13.3546971,27.5258753 C16.0327036,27.5291379 18.6735576,28.1790246 21.0702956,29.4244917 C21.8617038,29.8363146 22.7339791,30.051014 23.6184704,30.0517507 L29.8835073,30.0517507 C30.5525546,30.0562762 31.0914673,30.6253349 31.0871261,31.3227922 C31.0834917,31.9070061 30.6959147,32.4124969 30.1500359,32.5447897 C30.0442321,32.5548932 29.9408513,32.577626 29.8334322,32.577626 L20.191559,32.577626 L20.191559,34.2615429 L29.8334322,34.2615429 C29.8503932,34.2615429 29.8665464,34.2615429 29.8835073,34.2615429 C29.8996606,34.2615429 29.9150061,34.2564912 29.9319671,34.2564912 C30.5729481,34.2457562 31.2059535,34.1058859 31.7960518,33.8447735 L38.5489168,30.856663 C38.8705683,30.71353 39.2344202,30.71353 39.5560717,30.856663 C39.8906459,31.0039005 40.1531361,31.2869037 40.2829679,31.6405263 C40.4201695,32.0014107 40.4122948,32.4047088 40.261161,32.7594891 Z" id="Shape"></path>
                            <path d="M41.5217391,19.0344828 L41.4796087,19.0344828 C41.0796793,11.1887586 35.2297446,4.70544828 27.4782609,3.51724138 L27.4782609,2.48275862 C27.4782609,1.11155172 26.3687228,0 25,0 C23.6312772,0 22.5217391,1.11155172 22.5217391,2.48275862 L22.5217391,3.51724138 C14.7702554,4.70544828 8.92032065,11.1887586 8.5203913,19.0344828 L8.47826087,19.0344828 C7.10953804,19.0344828 6,20.1460345 6,21.5172414 C6,22.8884483 7.10953804,24 8.47826087,24 L41.5217391,24 C42.890462,24 44,22.8884483 44,21.5172414 C44,20.1460345 42.890462,19.0344828 41.5217391,19.0344828 Z M24.173913,2.48275862 C24.173913,2.02572414 24.5437935,1.65517241 25,1.65517241 C25.4562065,1.65517241 25.826087,2.02572414 25.826087,2.48275862 L25.826087,3.31034483 L24.173913,3.31034483 L24.173913,2.48275862 Z M25,4.96551724 C32.887788,4.97472414 39.3995217,11.1451034 39.8472609,19.0344828 L10.1527391,19.0344828 C10.6004783,11.1451034 17.112212,4.97472414 25,4.96551724 Z M41.5217391,22.3448276 L8.47826087,22.3448276 C8.02205435,22.3448276 7.65217391,21.9742759 7.65217391,21.5172414 C7.65217391,21.0602069 8.02205435,20.6896552 8.47826087,20.6896552 L41.5217391,20.6896552 C41.9779457,20.6896552 42.3478261,21.0602069 42.3478261,21.5172414 C42.3478261,21.9742759 41.9779457,22.3448276 41.5217391,22.3448276 Z" id="Shape"></path>
                            <path d="M22.684169,7 C22.1126135,7.1187399 21.5498421,7.27827141 21,7.47738288 L21.5258587,9 C22.0072049,8.82633279 22.4998026,8.68699515 23,8.58319871 L22.684169,7 Z" id="Path"></path>
                            <path d="M19.2630888,8 C17.0178126,9.18380134 15.1831125,11.0189936 14,13.2646634 L15.391156,14 C16.4269453,12.0341163 18.0337226,10.4279294 20,9.39273061 L19.2630888,8 Z" id="Path"></path>
                        </g>
                    </g>
                </g>
            </g>
        </g>
    </g>
</svg>