<?xml version="1.0" encoding="UTF-8"?>
<svg width="30px" height="30px" viewBox="0 0 30 30" version="1.1" xmlns="http://www.w3.org/2000/svg" xmlns:xlink="http://www.w3.org/1999/xlink">
    <title>smile-solid</title>
    <g id="Page-1" stroke="none" stroke-width="1" fill="none" fill-rule="evenodd">
        <g id="HotelManagement-Chat" transform="translate(-664.000000, -939.000000)" fill="#55B7A1" fill-rule="nonzero">
            <g id="Group-5" transform="translate(663.000000, 126.000000)">
                <g id="Group-7" transform="translate(1.000000, 801.000000)">
                    <g id="smile-solid" transform="translate(0.000000, 12.000000)">
                        <path d="M15,0 C6.71370968,0 0,6.71370968 0,15 C0,23.2862903 6.71370968,30 15,30 C23.2862903,30 30,23.2862903 30,15 C30,6.71370968 23.2862903,0 15,0 Z M19.8387097,10.1612903 C20.9092742,10.1612903 21.7741935,11.0262097 21.7741935,12.0967742 C21.7741935,13.1673387 20.9092742,14.0322581 19.8387097,14.0322581 C18.7681452,14.0322581 17.9032258,13.1673387 17.9032258,12.0967742 C17.9032258,11.0262097 18.7681452,10.1612903 19.8387097,10.1612903 Z M10.1612903,10.1612903 C11.2318548,10.1612903 12.0967742,11.0262097 12.0967742,12.0967742 C12.0967742,13.1673387 11.2318548,14.0322581 10.1612903,14.0322581 C9.09072581,14.0322581 8.22580645,13.1673387 8.22580645,12.0967742 C8.22580645,11.0262097 9.09072581,10.1612903 10.1612903,10.1612903 Z M21.9435484,20.4556452 C20.2197581,22.5241935 17.6915323,23.7096774 15,23.7096774 C12.3084677,23.7096774 9.78024194,22.5241935 8.05645161,20.4556452 C7.23387097,19.4697581 8.72177419,18.2358871 9.54435484,19.2157258 C10.8991935,20.8427419 12.8830645,21.7681452 15,21.7681452 C17.1169355,21.7681452 19.1008065,20.8366935 20.4556452,19.2157258 C21.266129,18.2358871 22.7600806,19.4697581 21.9435484,20.4556452 Z" id="Shape"></path>
                    </g>
                </g>
            </g>
        </g>
    </g>
</svg>