<?xml version="1.0" encoding="UTF-8"?>
<svg width="47px" height="43px" viewBox="0 0 47 43" version="1.1" xmlns="http://www.w3.org/2000/svg" xmlns:xlink="http://www.w3.org/1999/xlink">
    <title>spa</title>
    <g id="Page-1" stroke="none" stroke-width="1" fill="none" fill-rule="evenodd">
        <g id="HotelManagement" transform="translate(-1128.000000, -529.000000)" fill="#596C76" fill-rule="nonzero">
            <g id="right" transform="translate(1068.000000, 0.000000)">
                <g id="Group-6" transform="translate(40.000000, 481.000000)">
                    <g id="spa" transform="translate(20.000000, 48.000000)">
                        <path d="M46.2161541,35.1817871 L45.3458804,35.1817871 C47.5096189,33.0801537 47.5567163,29.6256763 45.4510417,27.4660905 C45.1169538,27.1234573 44.7391955,26.8261697 44.3275584,26.5817529 C45.9823317,25.5954853 46.9967371,23.8144964 46.9994787,21.8908251 C46.9955621,18.8699654 44.5428747,16.4219852 41.5162062,16.4180761 L34.4662844,16.4180761 L34.4662844,10.945327 C34.4660886,10.5135662 34.115257,10.1636035 33.682666,10.1637989 C33.6429123,10.1637989 33.6031586,10.1668285 33.5638944,10.1728876 L24.283064,11.597366 L24.283064,10.8671449 C26.1053709,10.4931412 27.4140126,8.89314388 27.4163626,7.03622059 C27.4163626,3.62435248 24.191415,0.365721341 24.0535499,0.228902615 C23.7476616,-0.0763008716 23.2518171,-0.0763008716 22.9459288,0.228902615 C22.8080637,0.365721341 19.5831161,3.62435248 19.5831161,7.03622059 C19.5854661,8.89314388 20.8941078,10.4931412 22.7164147,10.8671449 L22.7164147,11.8389488 L13.1974536,13.3009546 C12.8156808,13.3595912 12.5336839,13.6870766 12.5331943,14.0726122 L12.5331943,22.7828832 C11.9610736,22.1670035 11.3012205,21.6384923 10.5748827,21.2145497 C10.3325417,21.0748969 10.0338991,21.0748969 9.79155807,21.2145497 C7.47840039,22.5560573 5.91684271,24.8898916 5.56160498,27.5363567 C5.02022974,27.4255335 4.46925876,27.3676787 3.91662323,27.3635741 C3.57088331,27.3651378 3.22563297,27.3875174 2.8826347,27.4308108 C2.60475028,27.4642336 2.36593418,27.6430753 2.25597498,27.8999036 C0.659755183,31.6370093 1.90377264,35.979147 5.2380919,38.3090722 L0,38.3090722 L0,39.8727148 L1.86587931,39.8727148 L3.21554767,42.5676528 C3.34822328,42.8326902 3.61974319,43 3.91662323,43 L33.6829598,43 C34.1155508,43 34.4662844,42.6499395 34.4662844,42.2181787 L34.4662844,39.8727148 L39.4654623,39.8727148 L40.8151307,42.5676528 C40.9478063,42.8326902 41.2193262,43 41.5162062,43 L44.6495048,43 C45.0820958,43 45.4328294,42.6499395 45.4328294,42.2181787 L45.4328294,39.8727148 L46.2161541,39.8727148 C46.6487451,39.8727148 46.9994787,39.5226543 46.9994787,39.0908935 L46.9994787,35.9636083 C46.9994787,35.5318475 46.6487451,35.1817871 46.2161541,35.1817871 Z M45.4328294,31.2726806 C45.4302836,33.4305074 43.6781822,35.1792461 41.5162062,35.1817871 L27.4163626,35.1817871 C25.2533095,35.1817871 23.4997394,33.4315824 23.4997394,31.2726806 C23.4997394,29.1137788 25.2533095,27.3635741 27.4163626,27.3635741 L37.599583,27.3635741 C38.897454,27.3635741 39.9495569,28.4136579 39.9495569,29.709038 C39.9495569,31.0044182 38.897454,32.0545019 37.599583,32.0545019 L29.7663365,32.0545019 C29.3337455,32.0545019 28.9830119,31.7044414 28.9830119,31.2726806 C28.9830119,30.8409198 29.3337455,30.4908593 29.7663365,30.4908593 L35.249609,30.4908593 L35.249609,28.9272167 L29.7663365,28.9272167 C28.4684655,28.9272167 27.4163626,29.9773004 27.4163626,31.2726806 C27.4163626,32.5680607 28.4684655,33.6181445 29.7663365,33.6181445 L37.599583,33.6181445 C39.761559,33.6156036 41.5136604,31.8668648 41.5162062,29.709038 C41.5133667,28.860371 41.2308802,28.0362336 40.7125151,27.3635741 L41.5162062,27.3635741 C43.6781822,27.3661151 45.4302836,29.1148538 45.4328294,31.2726806 Z M39.1662323,17.9817187 C40.4641033,17.9817187 41.5162062,19.0318024 41.5162062,20.3271825 C41.5162062,21.6225627 40.4641033,22.6726464 39.1662323,22.6726464 L31.3329858,22.6726464 C30.9003948,22.6726464 30.5496612,22.3225859 30.5496612,21.8908251 C30.5496612,21.4590643 30.9003948,21.1090038 31.3329858,21.1090038 L36.8162583,21.1090038 L36.8162583,19.5453612 L31.3329858,19.5453612 C30.0351148,19.5453612 28.9830119,20.595445 28.9830119,21.8908251 C28.9830119,23.1862053 30.0351148,24.236289 31.3329858,24.236289 L39.1662323,24.236289 C41.3282083,24.2337481 43.0803097,22.4850093 43.0828555,20.3271825 C43.0820722,19.5207339 42.8290583,18.7347103 42.3590635,18.0786645 C44.4685568,18.5563573 45.7907109,20.6503679 45.3120995,22.7558126 C44.9093727,24.5277129 43.3365548,25.7889861 41.5162062,25.7999316 L37.599583,25.7999316 L30.5496612,25.7999316 C28.3866081,25.7999316 26.6330379,24.0497269 26.6330379,21.8908251 C26.6330379,19.7319233 28.3866081,17.9817187 30.5496612,17.9817187 L39.1662323,17.9817187 Z M21.1497654,7.03622059 C21.1497654,5.03710355 22.6576654,2.95824074 23.4997394,1.9543822 C24.3425967,2.95745892 25.8497133,5.03241262 25.8497133,7.03622059 C25.8456008,8.02659271 25.2186474,8.90770531 24.283064,9.23782935 L24.283064,7.81804188 L22.7164147,7.81804188 L22.7164147,9.23782935 C21.7808313,8.90770531 21.1538779,8.02659271 21.1497654,7.03622059 Z M10.1832204,22.8118106 C11.9332656,23.9873766 13.0664426,25.881241 13.2734361,27.976522 C12.1051074,28.4421943 11.0529066,29.1570722 10.1902703,30.0710213 C9.32136745,29.1605904 8.26417293,28.4501103 7.09222134,27.9890312 C7.295592,25.8889615 8.42945443,23.9898198 10.1832204,22.8118106 Z M14.1125726,29.3249683 C14.8635851,29.06169 15.6537639,28.9272167 16.4498176,28.9272167 C16.5727995,28.9272167 16.7012648,28.9319077 16.8352133,28.9405077 C18.1257406,32.6069564 16.1939641,36.6232701 12.5204653,37.9113206 C11.7694528,38.174599 10.9791761,38.3090722 10.1832204,38.3090722 C10.0602384,38.3090722 9.93177318,38.3043813 9.79782467,38.2957813 C8.50729731,34.6293326 10.4390738,30.6130189 14.1125726,29.3249683 Z M3.13329328,31.2726806 C3.13231943,30.4783502 3.26685543,29.6896879 3.5312275,28.9405077 C3.66517602,28.9319077 3.79364126,28.9271855 3.91662323,28.9271855 C5.9450424,28.9211576 7.8756439,29.7964065 9.20563123,31.3250626 C7.92107673,33.2956432 7.51531456,35.7105914 8.08547699,37.9916528 C5.13929508,37.0751628 3.13271109,34.3527633 3.13329328,31.2726806 Z M15.9657229,41.4363574 L4.40071786,41.4363574 L3.61739321,39.8727148 L16.7490476,39.8727148 L15.9657229,41.4363574 Z M23.4997394,41.4363574 L17.7172368,41.4363574 L18.5005615,39.8727148 L20.3664408,39.8727148 L20.3664408,38.3090722 L15.1220823,38.3090722 C18.4601223,35.9823721 19.7072731,31.6388661 18.1104658,27.9006854 C18.0005066,27.6438571 17.7616905,27.4650155 17.4838061,27.4315926 C16.5924806,27.3172512 15.6883281,27.348915 14.8071858,27.5254112 C14.6849871,26.6558304 14.4295254,25.810193 14.0497108,25.0181103 L14.0998436,25.0181103 L14.0998436,14.7434149 L32.8996351,11.8569307 L32.8996351,16.4180761 L30.5496612,16.4180761 C27.5252447,16.4140692 25.0702074,18.8579449 25.0661928,21.8765569 C25.0642345,23.3751128 25.6787527,24.8087776 26.7662031,25.8421499 C23.763426,26.1957286 21.616529,28.9119712 21.9707876,31.9089854 C22.1177589,33.1524722 22.688215,34.3079063 23.5866884,35.1817871 L22.7164147,35.1817871 C22.2838237,35.1817871 21.9330901,35.5318475 21.9330901,35.9636083 L21.9330901,39.0908935 C21.9330901,39.5226543 22.2838237,39.8727148 22.7164147,39.8727148 L23.4997394,39.8727148 L23.4997394,41.4363574 Z M26.932268,41.4363574 L25.0663887,41.4363574 L25.0663887,39.8727148 L27.7155926,39.8727148 L26.932268,41.4363574 Z M32.8996351,41.4363574 L28.6837819,41.4363574 L29.4671065,39.8727148 L32.8996351,39.8727148 L32.8996351,41.4363574 Z M43.8661801,41.4363574 L42.0003008,41.4363574 L41.2169762,39.8727148 L43.8661801,39.8727148 L43.8661801,41.4363574 Z M45.4328294,38.3090722 L23.4997394,38.3090722 L23.4997394,36.7454296 L45.4328294,36.7454296 L45.4328294,38.3090722 Z" id="Shape"></path>
                        <rect id="Rectangle" x="15" y="17" width="2" height="6"></rect>
                        <rect id="Rectangle" x="15" y="24" width="2" height="2"></rect>
                    </g>
                </g>
            </g>
        </g>
    </g>
</svg>